HIERARCHY
ROOT joint_Root
{
	OFFSET 0.0 0.0 0.0
	CHANNELS 6 Xposition Yposition Zposition Zrotation Xrotation Yrotation 
	JOINT Hips
	{
		OFFSET -17.1583 93.1646 452.98
		CHANNELS 6 Xposition Yposition Zposition Zrotation Xrotation Yrotation 
		JOINT Spine
		{
			OFFSET 15.7357 0.0 0.0
			CHANNELS 6 Xposition Yposition Zposition Zrotation Xrotation Yrotation 
			JOINT Chest
			{
				OFFSET 8.98455 -0.406207 0.0
				CHANNELS 6 Xposition Yposition Zposition Zrotation Xrotation Yrotation 
				JOINT Neck
				{
					OFFSET 16.3773 0.0 0.0
					CHANNELS 6 Xposition Yposition Zposition Zrotation Xrotation Yrotation 
					JOINT Head
					{
						OFFSET 6.45672 0.0 0.0
						CHANNELS 6 Xposition Yposition Zposition Zrotation Xrotation Yrotation 
						End Site
						{
							OFFSET 0.0 0.0 0.0
						}
					}
				}
				JOINT Shoulder_L
				{
					OFFSET 12.9942 -0.242716 4.98039
					CHANNELS 6 Xposition Yposition Zposition Zrotation Xrotation Yrotation 
					JOINT UpperArm_L
					{
						OFFSET 5.34809 0.0 0.0
						CHANNELS 6 Xposition Yposition Zposition Zrotation Xrotation Yrotation 
						JOINT LowerArm_L
						{
							OFFSET 24.3286 1.87007e-05 0.0
							CHANNELS 6 Xposition Yposition Zposition Zrotation Xrotation Yrotation 
							JOINT Hand_L
							{
								OFFSET 22.2916 0.0 0.0
								CHANNELS 6 Xposition Yposition Zposition Zrotation Xrotation Yrotation 
								End Site
								{
									OFFSET 0.0 0.0 0.0
								}
							}
						}
					}
				}
				JOINT Shoulder_R
				{
					OFFSET 12.9945 -0.242716 -4.98039
					CHANNELS 6 Xposition Yposition Zposition Zrotation Xrotation Yrotation 
					JOINT UpperArm_R
					{
						OFFSET -5.34813 0.0 0.0
						CHANNELS 6 Xposition Yposition Zposition Zrotation Xrotation Yrotation 
						JOINT LowerArm_R
						{
							OFFSET -24.3289 0.000322201 0.0
							CHANNELS 6 Xposition Yposition Zposition Zrotation Xrotation Yrotation 
							JOINT Hand_R
							{
								OFFSET -22.2915 -0.000108084 0.0
								CHANNELS 6 Xposition Yposition Zposition Zrotation Xrotation Yrotation 
								End Site
								{
									OFFSET 0.0 0.0 0.0
								}
							}
						}
					}
				}
			}
		}
		JOINT UpperLeg_L
		{
			OFFSET -2.19248 -6.46944 0.0
			CHANNELS 6 Xposition Yposition Zposition Zrotation Xrotation Yrotation 
			JOINT LowerLeg_L
			{
				OFFSET 39.0811 0.0 -1.23785e-05
				CHANNELS 6 Xposition Yposition Zposition Zrotation Xrotation Yrotation 
				JOINT Foot_L
				{
					OFFSET 40.9854 0.0 -1.26872e-05
					CHANNELS 6 Xposition Yposition Zposition Zrotation Xrotation Yrotation 
					JOINT Toes_L
					{
						OFFSET 11.7543 0.0 0.0
						CHANNELS 6 Xposition Yposition Zposition Zrotation Xrotation Yrotation 
						End Site
						{
							OFFSET 0.0 0.0 0.0
						}
					}
				}
			}
		}
		JOINT UpperLeg_R
		{
			OFFSET -2.19251 6.46944 0.0
			CHANNELS 6 Xposition Yposition Zposition Zrotation Xrotation Yrotation 
			JOINT LowerLeg_R
			{
				OFFSET -39.0811 -0.00228153 -0.0401928
				CHANNELS 6 Xposition Yposition Zposition Zrotation Xrotation Yrotation 
				JOINT Foot_R
				{
					OFFSET -40.9854 0.0 0.0
					CHANNELS 6 Xposition Yposition Zposition Zrotation Xrotation Yrotation 
					JOINT Toes_R
					{
						OFFSET -11.7543 0.0 0.0
						CHANNELS 6 Xposition Yposition Zposition Zrotation Xrotation Yrotation 
						End Site
						{
							OFFSET 0.0 0.0 0.0
						}
					}
				}
			}
		}
	}
}
MOTION
Frames:	4
Frame Time:	0.0333333
0.000000 0.000000 0.000000 0.000000 0.000000 -0.000000 2.748580 92.378400 2.818010 88.934900 1.101640 5.918630 15.735700 0.000005 -0.000001 101.245000 86.040200 -101.593000 8.984550 -0.406207 -0.000000 0.006610 1.567530 -0.694370 16.377300 -0.000001 -0.000001 10.351300 -0.381469 -3.941560 6.456720 -0.000001 -0.000000 -7.330480 -3.416710 -0.869691 12.994200 -0.242716 4.980390 -94.162200 11.357000 -69.718400 5.348090 -0.000007 -0.000001 -66.213900 1.494020 -10.051600 24.328600 0.000019 0.000005 2.347870 31.816200 -4.447880 22.291600 -0.000001 0.000005 -16.237600 5.175550 3.332470 12.994500 -0.242716 -4.980390 87.561700 6.667160 -69.858900 -5.348130 -0.000001 -0.000004 -71.020000 32.069600 -5.311790 -24.328900 0.000322 -0.000009 0.446915 1.396650 -17.786200 -22.291500 -0.000108 -0.000004 -0.016746 5.291580 0.307375 -2.192480 -6.469440 -0.000000 -175.428000 -8.150340 4.269800 39.081100 -0.000007 -0.000012 0.060845 -0.175339 19.137500 40.985400 -0.000006 -0.000013 2.695640 14.936200 -71.522500 11.754300 -0.000000 0.000003 -0.001878 0.194809 -8.673350 -2.192510 6.469440 -0.000001 172.388000 9.707490 -172.624000 -39.081100 -0.002282 -0.040193 -0.006856 0.041008 13.951900 -40.985400 0.000008 0.000006 -8.928110 8.180220 -68.913200 -11.754300 -0.000006 -0.000006 -0.011310 0.280848 -5.160490
0.000000 0.000000 0.000000 0.000000 0.000000 -0.000000 2.687350 92.321700 2.965550 89.147300 1.181200 6.492470 15.735700 0.000005 -0.000001 101.564000 85.981400 -101.756000 8.984550 -0.406207 -0.000000 0.111075 1.623550 -0.384864 16.377300 -0.000001 -0.000001 12.136700 -0.515649 -5.223510 6.456720 -0.000001 -0.000000 -6.738380 -3.436510 -1.787650 12.994200 -0.242716 4.980390 -94.282000 11.449700 -69.334400 5.348090 -0.000007 -0.000001 -64.922900 -7.033040 -14.186100 24.328600 0.000019 0.000005 0.316174 34.192700 -0.563612 22.291600 -0.000001 0.000005 -19.572800 5.100690 5.109940 12.994500 -0.242716 -4.980390 87.726500 6.188950 -69.783600 -5.348130 -0.000001 -0.000004 -71.413200 31.782600 -4.811830 -24.328900 0.000322 -0.000009 0.363422 1.098640 -18.353800 -22.291500 -0.000108 -0.000004 -0.228986 5.290390 0.340129 -2.192480 -6.469440 -0.000000 -175.352000 -8.609690 4.961430 39.081100 -0.000007 -0.000012 0.056599 -0.162946 19.154700 40.985400 -0.000006 -0.000013 2.767510 15.504600 -71.510700 11.754300 -0.000000 0.000003 -0.001741 0.193054 -8.744710 -2.192510 6.469440 -0.000001 172.249000 9.284380 -172.236000 -39.081100 -0.002282 -0.040193 -0.000881 0.016190 14.581300 -40.985400 0.000008 0.000006 -8.454290 7.735050 -69.540100 -11.754300 -0.000006 -0.000006 -0.010866 0.277665 -5.290770
0.000000 0.000000 0.000000 0.000000 0.000000 -0.000000 2.633770 92.299000 3.055870 89.319400 0.957877 6.840210 15.735700 0.000005 -0.000001 102.088000 85.965100 -101.924000 8.984550 -0.406207 -0.000000 0.122871 1.678560 0.325076 16.377300 -0.000001 -0.000001 13.872300 -0.112213 -6.667700 6.456720 -0.000001 -0.000000 -6.405590 -2.485550 -3.083180 12.994200 -0.242716 4.980390 -94.220300 11.003400 -68.862900 5.348090 -0.000007 -0.000001 -63.668800 -14.359400 -18.472100 24.328600 0.000019 0.000005 0.000061 37.159900 -0.000005 22.291600 -0.000001 0.000005 -23.046700 5.065050 5.900930 12.994500 -0.242716 -4.980390 87.817500 5.950260 -69.815400 -5.348130 -0.000001 -0.000004 -70.522400 32.383100 -4.602620 -24.328900 0.000322 -0.000009 0.362500 1.027130 -19.490300 -22.291500 -0.000108 -0.000004 -0.875057 5.295330 0.202481 -2.192480 -6.469440 -0.000000 -175.262000 -9.241710 5.531640 39.081100 -0.000007 -0.000012 0.053339 -0.154947 18.995600 40.985400 -0.000006 -0.000013 2.806300 15.994700 -71.557100 11.754300 -0.000000 0.000003 -0.001852 0.194480 -8.686730 -2.192510 6.469440 -0.000001 172.114000 8.921410 -172.055000 -39.081100 -0.002282 -0.040193 0.002949 0.001425 14.976800 -40.985400 0.000008 0.000006 -8.309850 7.647460 -69.920700 -11.754300 -0.000006 -0.000006 -0.011482 0.282064 -5.110720
0.000000 0.000000 0.000000 0.000000 0.000000 -0.000000 2.598430 92.321900 3.018090 89.426500 0.599960 6.643350 15.735700 0.000005 -0.000001 101.900000 85.978600 -101.295000 8.984550 -0.406207 -0.000000 0.096020 1.617520 1.206610 16.377300 -0.000001 -0.000001 14.519500 0.923131 -7.305690 6.456720 -0.000001 -0.000000 -7.384820 -0.832327 -2.856190 12.994200 -0.242716 4.980390 -94.032700 10.092500 -68.084200 5.348090 -0.000007 -0.000001 -62.052700 -20.320000 -23.235300 24.328600 0.000019 0.000005 -0.000031 35.950600 -0.000004 22.291600 -0.000001 0.000005 -23.832300 5.106230 4.971840 12.994500 -0.242716 -4.980390 87.782600 6.050000 -69.827700 -5.348130 -0.000001 -0.000004 -68.656700 32.666400 -4.543020 -24.328900 0.000322 -0.000009 0.441968 1.136810 -21.295300 -22.291500 -0.000108 -0.000004 -1.345490 5.309110 -0.184702 -2.192480 -6.469440 -0.000000 -175.353000 -9.492970 5.503720 39.081100 -0.000007 -0.000012 0.054285 -0.160425 18.695100 40.985400 -0.000006 -0.000013 2.722180 15.937000 -71.382500 11.754300 -0.000000 0.000003 -0.001859 0.194570 -8.683090 -2.192510 6.469440 -0.000001 172.121000 8.603880 -172.413000 -39.081100 -0.002282 -0.040193 0.005958 -0.009770 15.054900 -40.985400 0.000008 0.000006 -8.253160 7.648340 -69.881700 -11.754300 -0.000006 -0.000006 -0.010953 0.278297 -5.264930
